<?xml version="1.0" encoding="utf-8"?>
<!-- Generator: Adobe Illustrator 23.0.4, SVG Export Plug-In . SVG Version: 6.00 Build 0)  -->
<svg version="1.1" id="Layer_1" xmlns="http://www.w3.org/2000/svg" xmlns:xlink="http://www.w3.org/1999/xlink" x="0px" y="0px"
	 viewBox="0 0 28 28" style="enable-background:new 0 0 28 28;" xml:space="preserve">
<style type="text/css">
	.st0{fill:#FCB520;}
</style>
<g id="SNzUOO.tif">
	<g>
		<g>
			<path class="st0" d="M0,13.05c0.12-0.73,0.22-1.47,0.37-2.2C1.49,5.53,5.96,1.18,11.32,0.27c3.14-0.54,6.21-0.17,9.17,1.03
				c0.78,0.31,1.5,0.74,2.07,1.36c0.25,0.27,0.47,0.57,0.64,0.89c0.47,0.92,0.3,1.78-0.48,2.48c-2.16,1.93-4.33,3.86-6.5,5.8
				c-0.13,0.11-0.25,0.24-0.38,0.35c-1.64,1.37-2.59,3.13-2.91,5.23c-0.05,0.34,0,0.78-0.2,0.98c-0.19,0.19-0.64,0.12-0.98,0.19
				c-1.34,0.27-2.42,0.98-3.24,2.06c-0.35,0.46-0.63,0.96-0.95,1.44c-0.25,0.38-0.47,0.78-0.75,1.13c-0.86,1.08-2.16,1.18-3.17,0.22
				c-0.33-0.32-0.61-0.7-0.87-1.08c-1.53-2.19-2.44-4.61-2.7-7.27C0.06,14.95,0.02,14.85,0,14.74C0,14.18,0,13.62,0,13.05z
				 M14.53,7.84c1.23,0,2.22-0.99,2.23-2.21c0.01-1.24-1-2.24-2.24-2.24c-1.23,0-2.23,0.99-2.23,2.21
				C12.29,6.84,13.29,7.84,14.53,7.84z M6.13,17.33c1.25,0,2.25-0.98,2.25-2.22c0-1.22-0.99-2.21-2.22-2.22
				c-1.25,0-2.24,0.98-2.24,2.23C3.91,16.35,4.89,17.33,6.13,17.33z M10.01,8.4c0-1.24-0.97-2.21-2.21-2.22
				c-1.24,0-2.22,1-2.22,2.25c0,1.21,0.98,2.19,2.19,2.2C9.02,10.64,10.01,9.65,10.01,8.4z"/>
			<path class="st0" d="M14.55,27.97c0.05-0.11,0.08-0.23,0.16-0.32c1.35-1.51,1.93-3.31,1.99-5.3c0.01-0.18,0.02-0.36,0.03-0.58
				c1.47-0.02,2.71-0.57,3.77-1.52c1.05-0.93,1.77-2.1,2.35-3.36c0.04,0,0.08,0,0.12,0c0.33,1.24,0.78,2.47,0.96,3.73
				c0.29,2.05-0.59,3.7-2.16,4.98c-1.57,1.28-3.41,1.92-5.4,2.15c-0.58,0.07-1.16,0.15-1.74,0.22
				C14.6,27.97,14.58,27.97,14.55,27.97z"/>
			<path class="st0" d="M8.67,27.97c-0.44-0.1-0.89-0.17-1.32-0.3c-1.19-0.35-2.1-1.07-2.75-2.13c-0.05-0.08-0.08-0.16-0.14-0.28
				c0.08,0.02,0.11,0.03,0.14,0.04c1.31,0.64,2.54,0.37,3.41-0.81c0.37-0.5,0.64-1.07,0.97-1.6c0.34-0.55,0.65-1.13,1.05-1.63
				c0.69-0.86,1.65-1.19,2.74-1.15c0.13,0,0.28,0.08,0.38,0.17c0.57,0.5,1.15,1,1.69,1.52c0.12,0.12,0.21,0.33,0.22,0.51
				c0.14,2.93-1.73,5.16-4.65,5.58c-0.07,0.01-0.14,0.05-0.2,0.07C9.7,27.97,9.19,27.97,8.67,27.97z"/>
			<path class="st0" d="M27.25,4.32c0.58,0.06,0.93,0.65,0.65,1.13c-2.4,4.01-4.8,8.01-7.21,12.01c-0.65,1.07-1.56,1.84-2.72,2.31
				c-0.45,0.18-0.89,0.4-1.36,0.55c-0.18,0.06-0.45,0.03-0.59-0.07c-0.49-0.36-0.94-0.78-1.42-1.17c-0.2-0.16-0.27-0.34-0.2-0.61
				c0.13-0.51,0.23-1.02,0.33-1.54c0.27-1.32,0.96-2.39,1.95-3.28c2.27-2.05,4.54-4.11,6.81-6.16c1.08-0.98,2.17-1.95,3.26-2.91
				C26.89,4.46,27.08,4.41,27.25,4.32z"/>
		</g>
	</g>
</g>
</svg>
