<?xml version="1.0" encoding="utf-8"?>
<!-- Generator: Adobe Illustrator 23.0.4, SVG Export Plug-In . SVG Version: 6.00 Build 0)  -->
<svg version="1.1" id="Layer_1" xmlns="http://www.w3.org/2000/svg" xmlns:xlink="http://www.w3.org/1999/xlink" x="0px" y="0px"
	 viewBox="0 0 28 28" style="enable-background:new 0 0 28 28;" xml:space="preserve">
<style type="text/css">
	.st0{fill:#FCB520;}
</style>
<g>
	<path class="st0" d="M25,0H3.05c-1.65,0-3,1.35-3,3v14.48c0,1.65,1.35,3,3,3H25c1.65,0,3-1.35,3-3V3C28,1.35,26.66,0,25,0z
		 M26,17.48c0,0.55-0.45,1-1,1H3.05c-0.55,0-1-0.45-1-1V3c0-0.55,0.45-1,1-1H25c0.55,0,1,0.45,1,1V17.48z"/>
	<path class="st0" d="M0.03,25.08c0,1.61,1.02,2.92,2.26,2.92h23.43c1.24,0,2.26-1.31,2.26-2.92v-2.1H0.03V25.08z M10.53,25.01h6.98
		c0.27,0,0.48,0.28,0.48,0.63c0,0.34-0.22,0.63-0.48,0.63h-6.98c-0.27,0-0.48-0.28-0.48-0.63C10.05,25.3,10.27,25.01,10.53,25.01z"
		/>
	<path class="st0" d="M20.17,6.44c-0.03-0.02-0.06-0.03-0.1-0.02l-4.46,0.71c-0.05,0.01-0.09,0.04-0.1,0.09
		c-0.01,0.05,0.01,0.1,0.04,0.13l1.81,1.39l-2.4,2.67l-3.91-3.03c-0.17-0.13-0.38-0.18-0.58-0.15c-0.21,0.03-0.39,0.15-0.5,0.33
		L6.82,13.3c-0.23,0.35-0.13,0.81,0.21,1.04c0.13,0.08,0.27,0.12,0.41,0.12c0.24,0,0.48-0.12,0.63-0.33l2.7-4.07l3.82,2.96
		c0.31,0.24,0.75,0.2,1.02-0.09l2.95-3.27l1.92,1.48c0.02,0.02,0.05,0.03,0.08,0.03c0.02,0,0.04-0.01,0.06-0.02
		c0.04-0.02,0.07-0.07,0.06-0.12l-0.47-4.5C20.21,6.49,20.19,6.46,20.17,6.44z"/>
</g>
</svg>
