<?xml version="1.0" encoding="utf-8"?>
<!-- Generator: Adobe Illustrator 23.0.4, SVG Export Plug-In . SVG Version: 6.00 Build 0)  -->
<svg version="1.1" id="Layer_1" xmlns="http://www.w3.org/2000/svg" xmlns:xlink="http://www.w3.org/1999/xlink" x="0px" y="0px"
	 viewBox="0 0 28 28" style="enable-background:new 0 0 28 28;" xml:space="preserve">
<style type="text/css">
	.st0{fill:none;}
	.st1{fill:#FCB520;}
</style>
<g>
	<path class="st0" d="M14,7.64c0.82,0,1.62,0.08,2.39,0.23c1.05-1.94,1.53-3.2,1.41-3.75c-0.11-0.04-0.41-0.13-1.02-0.13h-6.07
		c-0.22,0-0.36,0.02-0.44,0.04c-0.06,0.51,0.33,1.93,1.47,3.83C12.48,7.72,13.23,7.64,14,7.64z"/>
	<path class="st1" d="M18.2,15.79c-0.48,0-0.82,0.17-1.05,0.51c-0.22,0.34-0.33,0.94-0.33,1.78c0,0.85,0.1,1.44,0.31,1.78
		s0.56,0.51,1.05,0.51c0.49,0,0.84-0.16,1.05-0.49c0.21-0.33,0.31-0.93,0.31-1.8c0-0.87-0.11-1.47-0.32-1.8
		C19.02,15.95,18.67,15.79,18.2,15.79z"/>
	<path class="st1" d="M20.3,9.37c1.46-2.76,2.31-5.32,1.11-7.31c-0.58-0.95-1.84-2.08-4.62-2.08h-6.07c-2.62,0-3.72,1.33-4.14,2.12
		C5.44,4.21,6.54,7.09,7.8,9.31C4.33,11.33,2,14.97,2,19.15c0,3.55,1.68,6.72,4.31,8.83h15.37C24.32,25.87,26,22.7,26,19.15
		C26,15.01,23.71,11.39,20.3,9.37z M10.27,4.02c0.08-0.02,0.23-0.04,0.44-0.04h6.07c0.61,0,0.91,0.09,1.02,0.13
		c0.12,0.55-0.36,1.82-1.41,3.75C15.62,7.72,14.82,7.64,14,7.64c-0.77,0-1.52,0.08-2.26,0.21C10.6,5.96,10.21,4.54,10.27,4.02z
		 M13.09,22.49H5.74v-2.38c0.92-0.47,1.67-0.89,2.27-1.24c0.59-0.36,1.06-0.67,1.4-0.94c0.34-0.27,0.57-0.51,0.7-0.72
		c0.13-0.21,0.19-0.41,0.19-0.59c0-0.29-0.08-0.5-0.24-0.65c-0.16-0.14-0.39-0.22-0.67-0.22c-0.35,0-0.64,0.13-0.86,0.39
		c-0.22,0.26-0.38,0.67-0.47,1.23l-2.64-0.77c0.23-0.96,0.7-1.7,1.4-2.22S8.41,13.6,9.5,13.6c0.61,0,1.14,0.07,1.59,0.21
		c0.45,0.14,0.82,0.33,1.12,0.58c0.29,0.24,0.51,0.53,0.65,0.85c0.14,0.32,0.21,0.66,0.21,1.02c0,0.47-0.13,0.89-0.38,1.26
		c-0.25,0.36-0.61,0.69-1.07,0.99c-0.46,0.29-1.02,0.56-1.67,0.81c-0.66,0.25-1.38,0.49-2.17,0.73h5.31V22.49z M22.26,20.02
		c-0.21,0.57-0.51,1.05-0.9,1.43c-0.38,0.38-0.85,0.67-1.39,0.87c-0.54,0.2-1.14,0.29-1.79,0.29c-0.64,0-1.24-0.1-1.78-0.29
		c-0.54-0.19-1.01-0.48-1.39-0.86c-0.38-0.38-0.69-0.86-0.9-1.43c-0.22-0.57-0.33-1.24-0.33-1.99c0-0.75,0.12-1.4,0.35-1.96
		c0.23-0.56,0.55-1.02,0.95-1.39c0.4-0.36,0.87-0.64,1.4-0.82c0.53-0.18,1.1-0.28,1.69-0.28c0.61,0,1.18,0.09,1.72,0.28
		c0.54,0.18,1,0.46,1.4,0.82c0.39,0.36,0.7,0.83,0.93,1.39c0.23,0.56,0.34,1.21,0.34,1.96S22.48,19.45,22.26,20.02z"/>
</g>
</svg>
