<?xml version="1.0" encoding="utf-8"?>
<!-- Generator: Adobe Illustrator 23.0.4, SVG Export Plug-In . SVG Version: 6.00 Build 0)  -->
<svg version="1.1" id="Layer_1" xmlns="http://www.w3.org/2000/svg" xmlns:xlink="http://www.w3.org/1999/xlink" x="0px" y="0px"
	 viewBox="0 0 28 28" style="enable-background:new 0 0 28 28;" xml:space="preserve">
<style type="text/css">
	.st0{fill:#FCB520;}
</style>
<path class="st0" d="M27.87,24.63h-1.33V22.4c0-0.07-0.06-0.13-0.13-0.13h-0.46v-1.6c0-0.07-0.06-0.13-0.13-0.13h-0.74v-8.92h0.74
	c0.07,0,0.13-0.06,0.13-0.13v-1.25h0.46c0.07,0,0.13-0.06,0.13-0.13v-2.7h1.33c0.06,0,0.11-0.04,0.12-0.1s-0.01-0.11-0.06-0.14
	L14.06,0.01C14.02,0,13.98,0,13.94,0.01L0.07,7.19C0.02,7.22-0.01,7.28,0,7.34s0.06,0.1,0.12,0.1h1.33v2.7
	c0,0.07,0.06,0.13,0.13,0.13h0.96v1.25c0,0.07,0.06,0.13,0.13,0.13h0.74v8.92H2.67c-0.07,0-0.13,0.06-0.13,0.13v1.6H1.58
	c-0.07,0-0.13,0.06-0.13,0.13v2.23H0.13C0.06,24.63,0,24.69,0,24.76v3.12C0,27.94,0.06,28,0.13,28h27.75c0.07,0,0.13-0.06,0.13-0.13
	v-3.12C28,24.69,27.94,24.63,27.87,24.63z M15.11,11.63h0.74v8.92h-0.63c-0.07,0-0.13,0.06-0.13,0.13v1.6h-1.58v-1.6
	c0-0.07-0.06-0.13-0.13-0.13h-0.74v-8.92h0.74c0.07,0,0.13-0.06,0.13-0.13v-1.25h1.47v1.25C14.99,11.58,15.04,11.63,15.11,11.63z
	 M7.17,20.55H6.43v-8.92h0.74c0.07,0,0.13-0.06,0.13-0.13v-1.25h1.47v1.25c0,0.07,0.06,0.13,0.13,0.13h0.74v8.92H8.89
	c-0.07,0-0.13,0.06-0.13,0.13v1.6H7.3v-1.6C7.3,20.61,7.24,20.55,7.17,20.55z M21.33,11.63h0.74v8.92h-0.74
	c-0.07,0-0.13,0.06-0.13,0.13v1.6h-1.36v-1.6c0-0.07-0.06-0.13-0.13-0.13h-0.85v-8.92h0.74c0.07,0,0.13-0.06,0.13-0.13v-1.25h1.47
	v1.25C21.21,11.58,21.26,11.63,21.33,11.63z"/>
</svg>
