<?xml version="1.0" encoding="utf-8"?>
<!-- Generator: Adobe Illustrator 23.0.4, SVG Export Plug-In . SVG Version: 6.00 Build 0)  -->
<svg version="1.1" id="Layer_1" xmlns="http://www.w3.org/2000/svg" xmlns:xlink="http://www.w3.org/1999/xlink" x="0px" y="0px"
	 viewBox="0 0 28 28" style="enable-background:new 0 0 28 28;" xml:space="preserve">
<style type="text/css">
	.st0{fill:#FCB520;}
</style>
<path class="st0" d="M14,0C6.27,0,0,6.27,0,14s6.27,14,14,14s14-6.27,14-14S21.73,0,14,0z M19.07,9.11c0.94,0,1.7,0.76,1.7,1.7
	c0,0.94-0.76,1.7-1.7,1.7c-0.94,0-1.7-0.76-1.7-1.7C17.37,9.87,18.13,9.11,19.07,9.11z M8.93,9.11c0.94,0,1.7,0.76,1.7,1.7
	c0,0.94-0.76,1.7-1.7,1.7c-0.94,0-1.7-0.76-1.7-1.7C7.23,9.87,7.99,9.11,8.93,9.11z M14,24.77c-5.52,0-10-4.48-10-10h2.26v2.58
	c0,0.14,0.11,0.25,0.25,0.25h2.77c0.14,0,0.25-0.11,0.25-0.25v-2.58H24C24,20.29,19.52,24.77,14,24.77z"/>
</svg>
