<?xml version="1.0" encoding="utf-8"?>
<!-- Generator: Adobe Illustrator 23.0.4, SVG Export Plug-In . SVG Version: 6.00 Build 0)  -->
<svg version="1.1" id="Layer_1" xmlns="http://www.w3.org/2000/svg" xmlns:xlink="http://www.w3.org/1999/xlink" x="0px" y="0px"
	 viewBox="0 0 28 28" style="enable-background:new 0 0 28 28;" xml:space="preserve">
<style type="text/css">
	.st0{display:none;fill:#FCB520;}
	.st1{fill:#FCB520;}
</style>
<circle class="st0" cx="14" cy="14" r="14"/>
<g>
	<path class="st1" d="M27.86,8.91c0.29-0.23,0.08-0.62-0.33-0.62h-8.42l5.22-5.2l-1.5-1.28l-4.94,6.48H0.46
		c-0.41,0-0.61,0.39-0.33,0.62l12.51,9.85v6.46c-2.95,0.13-5.16,0.7-5.16,1.37c0,0.77,2.92,1.4,6.52,1.4s6.52-0.63,6.52-1.4
		c0-0.67-2.21-1.24-5.16-1.37v-6.46L27.86,8.91z"/>
	<path class="st1" d="M9.43,6.55c0,0.38,0.31,0.69,0.69,0.69c0.38,0,0.69-0.31,0.69-0.69c0-0.38-0.31-0.69-0.69-0.69
		C9.74,5.86,9.43,6.17,9.43,6.55z"/>
	<circle class="st1" cx="6.49" cy="4.87" r="0.99"/>
	<circle class="st1" cx="10.81" cy="2.16" r="2.16"/>
</g>
</svg>
