<?xml version="1.0" encoding="utf-8"?>
<!-- Generator: Adobe Illustrator 23.0.4, SVG Export Plug-In . SVG Version: 6.00 Build 0)  -->
<svg version="1.1" id="Layer_1" xmlns="http://www.w3.org/2000/svg" xmlns:xlink="http://www.w3.org/1999/xlink" x="0px" y="0px"
	 viewBox="0 0 28 28" style="enable-background:new 0 0 28 28;" xml:space="preserve">
<style type="text/css">
	.st0{fill:#FCB520;}
</style>
<g>
	<path class="st0" d="M20.85,14V0H7.15v14H0l14,14l14-14H20.85z M12.35,11.02c0.05,0.09,0.16,0.18,0.31,0.26s0.38,0.15,0.67,0.22
		c0.29,0.07,0.67,0.14,1.14,0.21c0.85,0.14,1.57,0.3,2.14,0.51c0.58,0.2,1.04,0.44,1.38,0.72c0.34,0.28,0.58,0.6,0.73,0.96
		c0.14,0.36,0.21,0.78,0.21,1.25c0,0.95-0.34,1.74-1.01,2.38c-0.67,0.64-1.59,1.02-2.77,1.15v1.9h-2.34V18.6
		c-0.93-0.13-1.71-0.38-2.34-0.74s-1.21-0.79-1.72-1.3l2.68-2.34c0.36,0.43,0.79,0.79,1.28,1.08c0.49,0.3,1.09,0.44,1.81,0.44
		c0.44,0,0.75-0.08,0.95-0.24c0.2-0.16,0.3-0.36,0.3-0.59c0-0.13-0.04-0.25-0.11-0.36c-0.07-0.1-0.21-0.2-0.42-0.29
		c-0.21-0.09-0.49-0.17-0.86-0.26c-0.36-0.08-0.84-0.17-1.42-0.27c-1.34-0.23-2.3-0.58-2.88-1.06c-0.58-0.48-0.87-1.2-0.87-2.17
		c0-0.85,0.31-1.61,0.94-2.26c0.62-0.65,1.51-1.07,2.65-1.23V5.44h2.34v1.61c0.79,0.12,1.53,0.37,2.22,0.73
		c0.69,0.36,1.31,0.86,1.86,1.48l-2.65,2.15c-0.32-0.48-0.73-0.86-1.22-1.13c-0.49-0.28-1.08-0.41-1.75-0.41
		c-0.48,0-0.82,0.08-1.03,0.24s-0.31,0.36-0.31,0.58C12.27,10.82,12.29,10.93,12.35,11.02z"/>
</g>
</svg>
