<?xml version="1.0" encoding="utf-8"?>
<!-- Generator: Adobe Illustrator 23.0.4, SVG Export Plug-In . SVG Version: 6.00 Build 0)  -->
<svg version="1.1" id="Layer_1" xmlns="http://www.w3.org/2000/svg" xmlns:xlink="http://www.w3.org/1999/xlink" x="0px" y="0px"
	 viewBox="0 0 28 28" style="enable-background:new 0 0 28 28;" xml:space="preserve">
<style type="text/css">
	.st0{fill:#FCB520;}
</style>
<g id="_x32_V7upA.tif">
	<g>
		<g>
			<path class="st0" d="M11.13,14.99c-0.6-0.59-1.13-1.12-1.67-1.63c-0.07-0.06-0.23-0.07-0.32-0.04c-1.02,0.31-1.95,0.12-2.71-0.62
				C4.53,10.86,2.65,9,0.8,7.12c-1.35-1.37-0.92-3.57,0.8-4.34c1.02-0.46,2.16-0.25,3.02,0.58c0.92,0.89,1.81,1.8,2.72,2.71
				c2.03,2.03,4.06,4.06,6.09,6.08c0.07,0.07,0.15,0.14,0.2,0.19c0.59-0.59,1.17-1.17,1.77-1.78c-0.15-0.15-0.33-0.34-0.52-0.53
				c-0.8-0.81-0.81-1.89-0.01-2.69C16.98,5.23,19.1,3.11,21.22,1c0.13-0.13,0.29-0.24,0.46-0.31c0.35-0.14,0.68-0.08,0.95,0.19
				c0.28,0.28,0.33,0.62,0.17,0.98c-0.08,0.17-0.21,0.33-0.35,0.47c-1.6,1.61-3.2,3.21-4.81,4.81c-0.08,0.08-0.18,0.15-0.24,0.2
				c0.44,0.45,0.86,0.86,1.29,1.3c0.05-0.05,0.13-0.12,0.21-0.2c1.61-1.61,3.22-3.22,4.83-4.83c0.13-0.13,0.28-0.25,0.44-0.33
				c0.36-0.18,0.74-0.1,1.01,0.16c0.26,0.26,0.34,0.65,0.16,1.01c-0.09,0.17-0.22,0.33-0.36,0.47c-1.67,1.68-3.35,3.35-5,5.01
				c0.42,0.42,0.83,0.84,1.26,1.28c0.05-0.04,0.13-0.11,0.21-0.19c1.61-1.61,3.22-3.22,4.84-4.82c0.17-0.17,0.39-0.32,0.62-0.39
				c0.66-0.19,1.25,0.41,1.04,1.07c-0.07,0.22-0.23,0.44-0.4,0.61c-2.07,2.08-4.14,4.15-6.22,6.22c-0.88,0.88-1.92,0.88-2.8,0.01
				c-0.17-0.17-0.32-0.36-0.53-0.6c-0.33,0.36-0.61,0.67-0.9,0.96c-0.29,0.29-0.6,0.57-0.99,0.93c0.17,0.11,0.29,0.17,0.37,0.25
				c2.99,2.99,5.98,5.98,8.98,8.97c0.53,0.53,0.72,1.16,0.51,1.88c-0.35,1.2-1.8,1.67-2.8,0.93c-0.15-0.11-0.28-0.24-0.42-0.38
				c-2.96-2.96-5.92-5.92-8.89-8.89c-0.07-0.07-0.15-0.14-0.31-0.28c-0.08,0.12-0.13,0.24-0.21,0.32c-2.98,2.99-5.97,5.97-8.95,8.95
				c-0.71,0.71-1.68,0.81-2.43,0.27c-0.84-0.61-1-1.78-0.35-2.6c0.09-0.11,0.19-0.22,0.3-0.32c2.95-2.95,5.91-5.91,8.87-8.86
				C10.89,15.17,10.99,15.1,11.13,14.99z"/>
		</g>
	</g>
</g>
</svg>
