<?xml version="1.0" encoding="utf-8"?>
<!-- Generator: Adobe Illustrator 23.0.4, SVG Export Plug-In . SVG Version: 6.00 Build 0)  -->
<svg version="1.1" id="Layer_1" xmlns="http://www.w3.org/2000/svg" xmlns:xlink="http://www.w3.org/1999/xlink" x="0px" y="0px"
	 viewBox="0 0 28 28" style="enable-background:new 0 0 28 28;" xml:space="preserve">
<style type="text/css">
	.st0{fill:#FCB520;}
</style>
<g>
	<polygon class="st0" points="0,12.54 3.98,6.86 7.94,12.54 	"/>
	<polygon class="st0" points="10.03,12.54 14.01,6.86 17.97,12.54 	"/>
	<polygon class="st0" points="20.06,12.54 24.04,6.86 28,12.54 	"/>
	<polygon class="st0" points="22.98,6.02 19.01,11.71 15.05,6.02 	"/>
	<polygon class="st0" points="12.95,6.02 8.98,11.71 5.02,6.02 	"/>
	<polygon class="st0" points="10.03,13.59 17.97,13.59 14.03,28 	"/>
	<polygon class="st0" points="8.49,13.59 0,13.59 13.12,28 	"/>
	<polygon class="st0" points="19.46,13.59 28,13.59 14.88,28 	"/>
</g>
<g>
	<rect x="4.69" y="0.3" transform="matrix(0.8321 -0.5546 0.5546 0.8321 -0.5743 3.3145)" class="st0" width="1" height="4.62"/>
</g>
<g>
	<rect x="20.5" y="2.1" transform="matrix(0.5547 -0.8321 0.8321 0.5547 7.9943 20.1425)" class="st0" width="4.63" height="1"/>
</g>
<g>
	<rect x="13.5" class="st0" width="1" height="4.53"/>
</g>
</svg>
