<svg xmlns="http://www.w3.org/2000/svg" xmlns:xlink="http://www.w3.org/1999/xlink" viewBox="0 0 44.64 44.64"><defs><style>.cls-1,.cls-2{fill:none;}.cls-1{clip-rule:evenodd;}.cls-3{fill:#fcb520;}.cls-4{clip-path:url(#clip-path);}.cls-5{clip-path:url(#clip-path-2);}.cls-6{fill:#fff;}</style><clipPath id="clip-path" transform="translate(-0.14 0)"><path class="cls-1" d="M18.24,34.1A15.2,15.2,0,0,0,33.55,18.79c0-.24,0-.47,0-.7a10.81,10.81,0,0,0,2.69-2.79,10.63,10.63,0,0,1-3.09.85,5.42,5.42,0,0,0,2.37-3,10.74,10.74,0,0,1-3.42,1.31,5.38,5.38,0,0,0-9.31,3.68,5.59,5.59,0,0,0,.14,1.23,15.31,15.31,0,0,1-11.09-5.62,5.27,5.27,0,0,0-.73,2.7A5.38,5.38,0,0,0,13.48,21,5.46,5.46,0,0,1,11,20.28v.07a5.38,5.38,0,0,0,4.32,5.27,5.53,5.53,0,0,1-1.42.19,4.81,4.81,0,0,1-1-.1,5.38,5.38,0,0,0,5,3.74,10.76,10.76,0,0,1-8,2.23,15.2,15.2,0,0,0,8.25,2.42"/></clipPath><clipPath id="clip-path-2" transform="translate(-0.14 0)"><rect class="cls-2" x="-20.74" y="-0.22" width="65.41" height="44.87"/></clipPath></defs><title>Twitter</title><g id="Layer_1" data-name="Layer 1"><circle class="cls-3" cx="22.32" cy="22.32" r="22.32"/><g class="cls-4"><g class="cls-5"><rect class="cls-6" x="9.3" y="12.22" width="27.35" height="22.43"/></g></g></g></svg>