<svg xmlns="http://www.w3.org/2000/svg" viewBox="0 0 44.64 44.64"><defs><style>.cls-1{fill:#fcb520;}.cls-2{fill:#fff;}</style></defs><title>Instagram</title><g id="Layer_1" data-name="Layer 1"><circle class="cls-1" cx="22.32" cy="22.32" r="22.32"/><path class="cls-2" d="M22.46,9.27c4.25,0,4.75,0,6.43.09a8.76,8.76,0,0,1,3,.55,5,5,0,0,1,1.83,1.19,5.08,5.08,0,0,1,1.19,1.83,8.7,8.7,0,0,1,.55,3c.07,1.68.09,2.18.09,6.43s0,4.75-.09,6.43a8.7,8.7,0,0,1-.55,3,5.08,5.08,0,0,1-1.19,1.83,5,5,0,0,1-1.83,1.19,8.76,8.76,0,0,1-3,.55c-1.68.08-2.18.09-6.43.09s-4.76,0-6.44-.09a8.69,8.69,0,0,1-2.95-.55,4.91,4.91,0,0,1-1.84-1.19A5.08,5.08,0,0,1,10,31.71a9,9,0,0,1-.54-3c-.08-1.68-.1-2.18-.1-6.43s0-4.75.1-6.43a9,9,0,0,1,.54-3,5.08,5.08,0,0,1,1.19-1.83,4.91,4.91,0,0,1,1.84-1.19A8.69,8.69,0,0,1,16,9.36c1.68-.08,2.18-.09,6.44-.09m0-2.87c-4.33,0-4.87,0-6.57.09A11.83,11.83,0,0,0,12,7.23a8.18,8.18,0,0,0-4.66,4.66,11.84,11.84,0,0,0-.74,3.87c-.08,1.69-.1,2.24-.1,6.56s0,4.87.1,6.56a11.84,11.84,0,0,0,.74,3.87A8.18,8.18,0,0,0,12,37.41a11.83,11.83,0,0,0,3.86.74c1.7.07,2.24.09,6.57.09s4.86,0,6.56-.09a11.9,11.9,0,0,0,3.87-.74,8,8,0,0,0,2.82-1.84,7.91,7.91,0,0,0,1.83-2.82,11.58,11.58,0,0,0,.74-3.87c.08-1.69.1-2.24.1-6.56s0-4.87-.1-6.56a11.58,11.58,0,0,0-.74-3.87,7.91,7.91,0,0,0-1.83-2.82,8,8,0,0,0-2.82-1.84A11.9,11.9,0,0,0,29,6.49c-1.7-.07-2.24-.09-6.56-.09Z" transform="translate(-0.14 0)"/><path class="cls-2" d="M22.46,14.14a8.18,8.18,0,1,0,8.17,8.18A8.18,8.18,0,0,0,22.46,14.14Zm0,13.49a5.31,5.31,0,1,1,5.3-5.31A5.31,5.31,0,0,1,22.46,27.63Z" transform="translate(-0.14 0)"/><circle class="cls-2" cx="30.82" cy="13.82" r="1.91"/></g></svg>