<svg xmlns="http://www.w3.org/2000/svg" viewBox="0 0 44.64 44.64"><defs><style>.cls-1{fill:#fbb41d;}.cls-2{fill:#fff;}</style></defs><title>LinkedIn</title><g id="Layer_1" data-name="Layer 1"><circle class="cls-1" cx="22.32" cy="22.32" r="22.32"/><path class="cls-2" d="M36.23,10.58V34.06a2,2,0,0,1-2,2H10.71a2,2,0,0,1-2-2V10.58a2,2,0,0,1,2-2H34.2A2,2,0,0,1,36.23,10.58ZM16.89,18.86H12.75V32h4.14Zm.32-4.2A2.39,2.39,0,1,0,14.82,17,2.34,2.34,0,0,0,17.21,14.66Zm14.95,9.23c0-4-2.5-5.39-4.81-5.39a4.51,4.51,0,0,0-3.93,2.19h-.06V18.87h-4V32h4.14V24.89A2.53,2.53,0,0,1,26,22.06c1.16,0,2.06.66,2.06,2.78V32h4.14Z" transform="translate(-0.14 0)"/></g></svg>