<svg xmlns="http://www.w3.org/2000/svg" viewBox="0 0 44.64 44.64"><defs><style>.cls-1{fill:#fcb520;}.cls-2{fill:#fff;}</style></defs><title>Link</title><g id="Layer_1" data-name="Layer 1"><circle class="cls-1" cx="22.32" cy="22.32" r="22.32"/><path class="cls-2" d="M31,22.23c-1.31,1.11-2.42,2.13-3.74,3.27a3.52,3.52,0,0,1-.87,1.27l-7.3,6.58a3.47,3.47,0,0,1-4.88-.25,3.47,3.47,0,0,1,.26-4.87l1.78-1.61,5.52-5a3.44,3.44,0,0,1,2.3-.88h.19a41.69,41.69,0,0,0,3.19-2.93,5.71,5.71,0,0,0-3-.83,7.24,7.24,0,0,0-5.2,1.84l-5.43,4.9L12,25.44a7.2,7.2,0,0,0,9.65,10.7l7.31-6.58a7.2,7.2,0,0,0,2.36-5A7.08,7.08,0,0,0,31,22.23Z" transform="translate(-0.14 0)"/><path class="cls-2" d="M33.48,9A7.23,7.23,0,0,0,23.3,8.5L16,15.08a7.15,7.15,0,0,0-2.37,5,8.86,8.86,0,0,0,.25,2.37C15.52,21,16.27,20.26,17.7,19a2.43,2.43,0,0,1,.81-1.14l7.31-6.58a3.37,3.37,0,0,1,2.3-.89h.19a3.43,3.43,0,0,1,2.38,1.13A3.47,3.47,0,0,1,31.57,14a3.43,3.43,0,0,1-1.13,2.38L23.13,23a3.28,3.28,0,0,1-2.43.87s-1.93,1.77-3.25,3a8.76,8.76,0,0,0,3,.79h.38a7.14,7.14,0,0,0,4.82-1.84L33,19.2A7.22,7.22,0,0,0,33.48,9Z" transform="translate(-0.14 0)"/></g></svg>